<?xml version="1.0" encoding="UTF-8"?>
<svg xmlns="http://www.w3.org/2000/svg" xmlns:xlink="http://www.w3.org/1999/xlink" width="26px" height="26px" viewBox="0 0 26 26" version="1.1">
<g id="surface1">
<path style=" stroke:none;fill-rule:nonzero;fill:rgb(14.901961%,30.19608%,89.411765%);fill-opacity:1;" d="M 12.988281 25.933594 L 5.484375 23.851562 L 3.8125 5.097656 L 22.1875 5.097656 L 20.511719 23.847656 Z M 12.988281 25.933594 "/>
<path style=" stroke:none;fill-rule:nonzero;fill:rgb(16.078432%,39.607844%,94.509804%);fill-opacity:1;" d="M 19.078125 22.65625 L 20.511719 6.628906 L 13 6.628906 L 13 24.339844 Z M 19.078125 22.65625 "/>
<path style=" stroke:none;fill-rule:nonzero;fill:rgb(92.156863%,92.156863%,92.156863%);fill-opacity:1;" d="M 7.648438 13.585938 L 7.851562 15.886719 L 13 15.886719 L 13 13.585938 Z M 7.648438 13.585938 "/>
<path style=" stroke:none;fill-rule:nonzero;fill:rgb(92.156863%,92.156863%,92.156863%);fill-opacity:1;" d="M 7.230469 8.929688 L 7.441406 11.230469 L 13 11.230469 L 13 8.929688 Z M 7.230469 8.929688 "/>
<path style=" stroke:none;fill-rule:nonzero;fill:rgb(92.156863%,92.156863%,92.156863%);fill-opacity:1;" d="M 13 19.558594 L 12.988281 19.5625 L 10.429688 18.871094 L 10.265625 17.035156 L 7.957031 17.035156 L 8.277344 20.648438 L 12.988281 21.957031 L 13 21.953125 Z M 13 19.558594 "/>
<path style=" stroke:none;fill-rule:nonzero;fill:rgb(0%,0%,0%);fill-opacity:1;" d="M 8.136719 0 L 10.921875 0 L 10.921875 1.164062 L 9.300781 1.164062 L 9.300781 2.328125 L 10.921875 2.328125 L 10.921875 3.496094 L 8.136719 3.496094 Z M 8.136719 0 "/>
<path style=" stroke:none;fill-rule:nonzero;fill:rgb(0%,0%,0%);fill-opacity:1;" d="M 11.480469 0 L 14.265625 0 L 14.265625 1.011719 L 12.644531 1.011719 L 12.644531 1.214844 L 14.265625 1.214844 L 14.265625 3.546875 L 11.480469 3.546875 L 11.480469 2.480469 L 13.101562 2.480469 L 13.101562 2.28125 L 11.480469 2.28125 Z M 11.480469 0 "/>
<path style=" stroke:none;fill-rule:nonzero;fill:rgb(0%,0%,0%);fill-opacity:1;" d="M 14.824219 0 L 17.609375 0 L 17.609375 1.011719 L 15.988281 1.011719 L 15.988281 1.214844 L 17.609375 1.214844 L 17.609375 3.546875 L 14.824219 3.546875 L 14.824219 2.480469 L 16.445312 2.480469 L 16.445312 2.28125 L 14.824219 2.28125 Z M 14.824219 0 "/>
<path style=" stroke:none;fill-rule:nonzero;fill:rgb(100%,100%,100%);fill-opacity:1;" d="M 18.339844 13.585938 L 18.753906 8.929688 L 12.992188 8.929688 L 12.992188 11.230469 L 16.234375 11.230469 L 16.023438 13.585938 L 12.992188 13.585938 L 12.992188 15.886719 L 15.824219 15.886719 L 15.558594 18.871094 L 12.992188 19.5625 L 12.992188 21.953125 L 17.707031 20.648438 L 17.742188 20.257812 L 18.28125 14.203125 Z M 18.339844 13.585938 "/>
</g>
</svg>
