<?xml version="1.0" encoding="UTF-8"?>
<svg xmlns="http://www.w3.org/2000/svg" xmlns:xlink="http://www.w3.org/1999/xlink" width="26px" height="26px" viewBox="0 0 26 26" version="1.1">
<g id="surface1">
<path style=" stroke:none;fill-rule:evenodd;fill:rgb(0%,0%,0%);fill-opacity:1;" d="M 13 6.539062 C 10.109375 6.539062 8.304688 7.972656 7.582031 10.847656 C 8.667969 9.410156 9.929688 8.871094 11.375 9.230469 C 12.199219 9.4375 12.789062 10.03125 13.441406 10.6875 C 14.503906 11.757812 15.730469 13 18.417969 13 C 21.304688 13 23.109375 11.566406 23.832031 8.691406 C 22.75 10.128906 21.488281 10.667969 20.042969 10.308594 C 19.21875 10.101562 18.628906 9.507812 17.976562 8.851562 C 16.914062 7.777344 15.6875 6.539062 13 6.539062 Z M 7.582031 13 C 4.695312 13 2.890625 14.433594 2.167969 17.308594 C 3.25 15.871094 4.515625 15.332031 5.957031 15.691406 C 6.78125 15.898438 7.371094 16.492188 8.023438 17.148438 C 9.085938 18.21875 10.316406 19.460938 13 19.460938 C 15.890625 19.460938 17.695312 18.027344 18.417969 15.152344 C 17.335938 16.589844 16.070312 17.128906 14.625 16.769531 C 13.800781 16.5625 13.210938 15.96875 12.5625 15.3125 C 11.496094 14.242188 10.269531 13 7.582031 13 Z M 7.582031 13 "/>
</g>
</svg>
