<?xml version="1.0" encoding="UTF-8"?>
<svg xmlns="http://www.w3.org/2000/svg" xmlns:xlink="http://www.w3.org/1999/xlink" width="26px" height="26px" viewBox="0 0 26 26" version="1.1">
<g id="surface1">
<path style=" stroke:none;fill-rule:nonzero;fill:rgb(43.921569%,60.000002%,65.098041%);fill-opacity:1;" d="M 12.585938 1.429688 L 12.585938 2.613281 L 10.472656 2.613281 L 10.472656 3.382812 L 12.585938 3.382812 L 12.585938 5.738281 L 13.414062 5.738281 L 13.414062 3.382812 L 15.582031 3.382812 L 15.582031 2.613281 L 13.414062 2.613281 L 13.414062 0.253906 L 12.585938 0.253906 Z M 12.585938 1.429688 "/>
<path style=" stroke:none;fill-rule:nonzero;fill:rgb(92.156863%,56.862748%,17.254902%);fill-opacity:1;" d="M 5.675781 4.429688 L 5.675781 6.144531 L 2.476562 6.144531 L 2.476562 7.222656 L 5.675781 7.222656 L 5.675781 10.707031 L 6.863281 10.707031 L 6.863281 7.222656 L 10.113281 7.222656 L 10.113281 6.144531 L 6.863281 6.144531 L 6.863281 2.714844 L 5.675781 2.714844 Z M 5.675781 4.429688 "/>
<path style=" stroke:none;fill-rule:nonzero;fill:rgb(34.901962%,52.941179%,60.784316%);fill-opacity:1;" d="M 19.089844 4.429688 L 19.089844 6.144531 L 15.886719 6.144531 L 15.886719 7.273438 L 19.089844 7.273438 L 19.089844 10.707031 L 20.324219 10.707031 L 20.324219 7.273438 L 23.523438 7.273438 L 23.523438 6.144531 L 20.324219 6.144531 L 20.324219 2.714844 L 19.089844 2.714844 Z M 19.089844 4.429688 "/>
<path style=" stroke:none;fill-rule:nonzero;fill:rgb(90.980393%,46.27451%,17.254902%);fill-opacity:1;" d="M 12.277344 10.273438 L 12.277344 12.195312 L 8.71875 12.195312 L 8.71875 13.628906 L 12.277344 13.628906 L 12.277344 17.472656 L 13.722656 17.472656 L 13.722656 13.628906 L 17.28125 13.628906 L 17.28125 12.195312 L 13.722656 12.195312 L 13.722656 8.351562 L 12.277344 8.351562 Z M 12.277344 10.273438 "/>
<path style=" stroke:none;fill-rule:nonzero;fill:rgb(35.686275%,39.607844%,56.862748%);fill-opacity:1;" d="M 22.75 11.246094 L 22.75 12.453125 L 20.582031 12.453125 L 20.582031 13.425781 L 22.75 13.425781 L 22.75 15.835938 L 23.832031 15.835938 L 23.832031 13.425781 L 26 13.425781 L 26 12.453125 L 23.832031 12.453125 L 23.832031 10.042969 L 22.75 10.042969 Z M 22.75 11.246094 "/>
<path style=" stroke:none;fill-rule:nonzero;fill:rgb(43.921569%,60.000002%,65.098041%);fill-opacity:1;" d="M 2.113281 11.351562 L 2.113281 12.503906 L 0 12.503906 L 0 13.320312 L 2.113281 13.320312 L 2.113281 15.628906 L 2.941406 15.628906 L 2.941406 13.320312 L 5.109375 13.246094 L 5.109375 12.503906 L 2.941406 12.503906 L 2.941406 10.195312 L 2.113281 10.195312 Z M 2.113281 11.351562 "/>
<path style=" stroke:none;fill-rule:nonzero;fill:rgb(78.039217%,12.54902%,20.784314%);fill-opacity:1;" d="M 5.675781 16.78125 L 5.675781 18.496094 L 2.476562 18.496094 L 2.476562 19.625 L 5.675781 19.625 L 5.675781 23.058594 L 6.910156 23.058594 L 6.910156 19.625 L 10.113281 19.625 L 10.113281 18.496094 L 6.910156 18.496094 L 6.910156 15.066406 L 5.675781 15.066406 Z M 5.675781 16.78125 "/>
<path style=" stroke:none;fill-rule:nonzero;fill:rgb(12.156863%,26.666668%,49.411765%);fill-opacity:1;" d="M 19.089844 16.78125 L 19.089844 18.496094 L 15.886719 18.496094 L 15.886719 19.574219 L 19.089844 19.574219 L 19.089844 23.058594 L 20.324219 23.058594 L 20.324219 19.574219 L 23.523438 19.574219 L 23.523438 18.496094 L 20.324219 18.496094 L 20.324219 15.066406 L 19.089844 15.066406 Z M 19.089844 16.78125 "/>
<path style=" stroke:none;fill-rule:nonzero;fill:rgb(35.686275%,39.607844%,56.862748%);fill-opacity:1;" d="M 12.484375 21.140625 L 12.484375 22.339844 L 10.316406 22.339844 L 10.316406 23.316406 L 12.484375 23.316406 L 12.484375 25.726562 L 13.566406 25.726562 L 13.566406 23.316406 L 15.734375 23.316406 L 15.734375 22.339844 L 13.566406 22.339844 L 13.566406 19.933594 L 12.484375 19.933594 Z M 12.484375 21.140625 "/>
</g>
</svg>
